<?xml version="1.0" encoding="utf-8"?>
<!-- Generator: Adobe Illustrator 19.1.0, SVG Export Plug-In . SVG Version: 6.00 Build 0)  -->
<svg version="1.1" id="Layer_1" xmlns="http://www.w3.org/2000/svg" xmlns:xlink="http://www.w3.org/1999/xlink" x="0px" y="0px"
	 viewBox="0 0 170 255" style="enable-background:new 0 0 170 255;" xml:space="preserve">
<style type="text/css">
	.st0{fill:#D71920;}
	.st1{opacity:0.5;}
	.st2{fill:none;stroke:#FFFFFF;stroke-width:3;stroke-miterlimit:10;}
	.st3{opacity:0.5;fill:none;stroke:#FFFFFF;stroke-width:3;stroke-miterlimit:10;}
</style>
<path class="st0" d="M156.1,250H13.9C9,250,5,246,5,241.1V13.9C5,9,9,5,13.9,5h142.1c4.9,0,8.9,4,8.9,8.9v227.1
	C165,246,161,250,156.1,250z"/>
<g>
	<g class="st1">
		<line class="st2" x1="5" y1="22.5" x2="165" y2="22.5"/>
		<line class="st2" x1="5" y1="32.5" x2="165" y2="32.5"/>
	</g>
	<g class="st1">
		<line class="st2" x1="5" y1="47.5" x2="165" y2="47.5"/>
		<line class="st2" x1="5" y1="57.5" x2="165" y2="57.5"/>
	</g>
	<g class="st1">
		<line class="st2" x1="5" y1="72.5" x2="165" y2="72.5"/>
		<line class="st2" x1="5" y1="82.5" x2="165" y2="82.5"/>
	</g>
	<g class="st1">
		<line class="st2" x1="5" y1="97.5" x2="165" y2="97.5"/>
		<line class="st2" x1="5" y1="107.5" x2="165" y2="107.5"/>
	</g>
	<g class="st1">
		<line class="st2" x1="5" y1="122.5" x2="165" y2="122.5"/>
		<line class="st2" x1="5" y1="132.5" x2="165" y2="132.5"/>
	</g>
	<g class="st1">
		<line class="st2" x1="5" y1="147.5" x2="165" y2="147.5"/>
		<line class="st2" x1="5" y1="157.5" x2="165" y2="157.5"/>
	</g>
	<g class="st1">
		<line class="st2" x1="5" y1="172.5" x2="165" y2="172.5"/>
		<line class="st2" x1="5" y1="182.5" x2="165" y2="182.5"/>
	</g>
	<g class="st1">
		<line class="st2" x1="5" y1="197.5" x2="165" y2="197.5"/>
		<line class="st2" x1="5" y1="207.5" x2="165" y2="207.5"/>
	</g>
	<g class="st1">
		<line class="st2" x1="5" y1="222.5" x2="165" y2="222.5"/>
		<line class="st2" x1="5" y1="232.5" x2="165" y2="232.5"/>
	</g>
	<path class="st3" d="M5,47.5c0,0,44.8,0,80-12.5s80-12.5,80-12.5"/>
	<path class="st3" d="M5,57.5c0,0,44.8,0,80-12.5s80-12.5,80-12.5"/>
	<path class="st3" d="M5,72.5c0,0,44.8,0,80-12.5s80-12.5,80-12.5"/>
	<path class="st3" d="M5,82.5c0,0,44.8,0,80-12.5s80-12.5,80-12.5"/>
	<path class="st3" d="M5,97.5c0,0,44.8,0,80-12.5s80-12.5,80-12.5"/>
	<path class="st3" d="M5,107.5c0,0,44.8,0,80-12.5s80-12.5,80-12.5"/>
	<path class="st3" d="M5,122.5c0,0,44.8,0,80-12.5s80-12.5,80-12.5"/>
	<path class="st3" d="M5,132.5c0,0,44.8,0,80-12.5s80-12.5,80-12.5"/>
	<path class="st3" d="M5,147.5c0,0,44.8,0,80-12.5s80-12.5,80-12.5"/>
	<path class="st3" d="M5,157.5c0,0,44.8,0,80-12.5s80-12.5,80-12.5"/>
	<path class="st3" d="M5,172.5c0,0,44.8,0,80-12.5s80-12.5,80-12.5"/>
	<path class="st3" d="M5,182.5c0,0,44.8,0,80-12.5s80-12.5,80-12.5"/>
	<path class="st3" d="M5,197.5c0,0,44.8,0,80-12.5s80-12.5,80-12.5"/>
	<path class="st3" d="M5,207.5c0,0,44.8,0,80-12.5s80-12.5,80-12.5"/>
	<path class="st3" d="M5,222.5c0,0,44.8,0,80-12.5s80-12.5,80-12.5"/>
	<path class="st3" d="M5,232.5c0,0,44.8,0,80-12.5s80-12.5,80-12.5"/>
</g>
</svg>
